<?xml version="1.0" encoding="utf-8"?>
<!-- Generator: Adobe Illustrator 26.0.1, SVG Export Plug-In . SVG Version: 6.00 Build 0)  -->
<svg version="1.1" id="Layer_1" xmlns="http://www.w3.org/2000/svg" xmlns:xlink="http://www.w3.org/1999/xlink" x="0px" y="0px"
	 viewBox="0 0 25 20" style="enable-background:new 0 0 25 20;" xml:space="preserve">
<style type="text/css">
	.st0{fill:#FC9B00;}
</style>
<path id="Path_6635" class="st0" d="M4.4,1.9h13.8v1.9H20V1.2C20,0.6,19.4,0,18.8,0h-15C3.1,0,2.5,0.6,2.5,1.2v10H0.6
	c-0.3,0-0.6,0.3-0.6,0.6v0.6C0,13.9,1.1,15,2.5,15h11.2v-3.8H4.4V1.9z M23.6,5h-7.2C15.6,5,15,5.6,15,6.4v12.2
	c0,0.8,0.6,1.4,1.4,1.4h7.2c0.8,0,1.4-0.6,1.4-1.4V6.4C25,5.6,24.4,5,23.6,5z M23.1,18.1h-6.2V6.9h6.2V18.1z"/>
</svg>
