<svg xmlns="http://www.w3.org/2000/svg" width="601.333" height="677.523" viewBox="0 0 601.333 677.523">
  <path id="Path_6682" data-name="Path 6682" d="M620.874,607.084s-228.82-6.677-283.264-7.216-305.965,1.388-305.965,1.388c-18.4,1.819-24.51-14.528-24.51-38.27C8,470.8,9.357,324.053,9.913,279.954s-6.021-226.1-6.021-226.1c0-20.64,4.354-51.32,31.014-47.312,0,0,221.079-2.5,289.4,1.374s318.233,3.437,318.233,3.437c14.3,0,34.991,5.612,35.45,43.306,0,0-3.514,140.316-1.569,213.266,1.942,45.134,5,263.788,5,263.788C681.415,573.408,675.305,607.084,620.874,607.084Z" transform="translate(607.083 -3.892) rotate(90)" fill="#ff6274"/>
</svg>
