<svg xmlns="http://www.w3.org/2000/svg" width="616" height="378.716" viewBox="0 0 616 378.716">
  <path id="Path_6700" d="M564.848,385.117s-208.042-4.213-257.542-4.553-278.181.875-278.181.875C12.4,382.587,6.841,372.274,6.841,357.3c.785-58.157,2.02-150.736,2.525-178.557S3.892,36.1,3.892,36.1c0-13.021,3.959-29.377,28.2-26.848,0,0,201-4.579,263.117-2.133S584.543,9.287,584.543,9.287c13,0,31.814,3.54,32.231,27.32,0,0-3.2,88.522-1.427,134.544,1.766,28.474,4.545,166.417,4.545,166.417C619.892,363.872,614.337,385.117,564.848,385.117Z" transform="translate(-3.892 -6.4)" fill="#ff6274"/>
</svg>
